%TF.GenerationSoftware,KiCad,Pcbnew,8.0.6*%
%TF.CreationDate,2024-11-10T15:28:59+09:00*%
%TF.ProjectId,powerups-usb-protection,706f7765-7275-4707-932d-7573622d7072,0.9.1*%
%TF.SameCoordinates,Original*%
%TF.FileFunction,Paste,Top*%
%TF.FilePolarity,Positive*%
%FSLAX46Y46*%
G04 Gerber Fmt 4.6, Leading zero omitted, Abs format (unit mm)*
G04 Created by KiCad (PCBNEW 8.0.6) date 2024-11-10 15:28:59*
%MOMM*%
%LPD*%
G01*
G04 APERTURE LIST*
G04 Aperture macros list*
%AMFreePoly0*
4,1,33,2.048839,0.198839,2.052500,0.190000,2.052500,-0.190000,2.048839,-0.198839,2.040000,-0.202500,1.692500,-0.202500,1.692500,-0.447500,2.040000,-0.447500,2.048839,-0.451161,2.052500,-0.460000,2.052500,-0.840000,2.048839,-0.848839,2.040000,-0.852500,-0.240000,-0.852500,-0.248839,-0.848839,-0.252500,-0.840000,-0.252500,-0.460000,-0.248839,-0.451161,-0.240000,-0.447500,0.107500,-0.447500,
0.107500,-0.202500,-0.240000,-0.202500,-0.246036,-0.200000,-0.250000,-0.200000,-0.250000,-0.196035,-0.252500,-0.190000,-0.252500,0.190000,-0.250000,0.196035,-0.250000,0.200000,-0.246036,0.200000,-0.240000,0.202500,2.040000,0.202500,2.048839,0.198839,2.048839,0.198839,$1*%
G04 Aperture macros list end*
%ADD10C,0.010000*%
%ADD11R,0.630000X0.820000*%
%ADD12R,0.350000X0.650000*%
%ADD13R,0.400000X0.500000*%
%ADD14FreePoly0,270.000000*%
%ADD15R,0.285000X0.920000*%
%ADD16R,1.450000X0.600000*%
%ADD17R,1.450000X0.300000*%
G04 APERTURE END LIST*
D10*
%TO.C,Q1*%
X124025000Y-99130000D02*
X123284973Y-99130000D01*
X123284973Y-98209721D01*
X124025000Y-98209721D01*
X124025000Y-99130000D01*
G36*
X124025000Y-99130000D02*
G01*
X123284973Y-99130000D01*
X123284973Y-98209721D01*
X124025000Y-98209721D01*
X124025000Y-99130000D01*
G37*
%TD*%
D11*
%TO.C,U1*%
X122890000Y-94480000D03*
X123690000Y-94480000D03*
D12*
X122640000Y-95530000D03*
X123290000Y-95530000D03*
X123940000Y-95530000D03*
X123940000Y-93430000D03*
X123290000Y-93430000D03*
X122640000Y-93430000D03*
%TD*%
D13*
%TO.C,Q1*%
X122680000Y-97770000D03*
D14*
X123980000Y-97770000D03*
D13*
X123330000Y-97770000D03*
X123980000Y-99570000D03*
X123330000Y-99570000D03*
D15*
X122680000Y-98670000D03*
D13*
X122680000Y-99570000D03*
%TD*%
D16*
%TO.C,P1*%
X127905000Y-99380000D03*
X127905000Y-98580000D03*
D17*
X127905000Y-97380000D03*
X127905000Y-96380000D03*
X127905000Y-95880000D03*
X127905000Y-94880000D03*
D16*
X127905000Y-93680000D03*
X127905000Y-92880000D03*
X127905000Y-92880000D03*
X127905000Y-93680000D03*
D17*
X127905000Y-94380000D03*
X127905000Y-95380000D03*
X127905000Y-96880000D03*
X127905000Y-97880000D03*
D16*
X127905000Y-98580000D03*
X127905000Y-99380000D03*
%TD*%
%TO.C,P2*%
X119470000Y-92890000D03*
X119470000Y-93690000D03*
D17*
X119470000Y-94890000D03*
X119470000Y-95890000D03*
X119470000Y-96390000D03*
X119470000Y-97390000D03*
D16*
X119470000Y-98590000D03*
X119470000Y-99390000D03*
X119470000Y-99390000D03*
X119470000Y-98590000D03*
D17*
X119470000Y-97890000D03*
X119470000Y-96890000D03*
X119470000Y-95390000D03*
X119470000Y-94390000D03*
D16*
X119470000Y-93690000D03*
X119470000Y-92890000D03*
%TD*%
M02*
