M48
; DRILL file {KiCad 8.0.6} date 2024-11-10T15:29:43+0900
; FORMAT={-:-/ absolute / inch / decimal}
; #@! TF.CreationDate,2024-11-10T15:29:43+09:00
; #@! TF.GenerationSoftware,Kicad,Pcbnew,8.0.6
; #@! TF.FileFunction,Plated,1,2,PTH
FMAT,2
INCH
; #@! TA.AperFunction,Plated,PTH,ViaDrill
T1C0.0118
; #@! TA.AperFunction,Plated,PTH,ComponentDrill
T2C0.0236
%
G90
G05
T1
X4.5012Y-3.7134
X4.5012Y-3.8492
X4.5744Y-3.6504
X4.5764Y-3.926
X4.6051Y-3.686
X4.6112Y-3.7149
X4.6327Y-3.8146
X4.6332Y-3.7842
X4.6453Y-3.7566
X4.7481Y-3.7741
X4.7783Y-3.7579
X4.802Y-3.6783
X4.8516Y-3.6465
X4.9055Y-3.6783
X4.987Y-3.7032
X4.9882Y-3.7476
X4.989Y-3.798
X4.9921Y-3.8543
X5.0854Y-3.7354
X5.094Y-3.7709
X5.0941Y-3.8413
X5.2094Y-3.913
X5.2106Y-3.6543
X5.2134Y-3.7827
X5.2437Y-3.85
X5.2445Y-3.7118
T2
G00X4.5148Y-3.615
M15
G01X4.4911Y-3.615
M16
G05
G00X4.5148Y-3.9551
M15
G01X4.4911Y-3.9551
M16
G05
G00X4.6892Y-3.615
M15
G01X4.6459Y-3.615
M16
G05
G00X4.6892Y-3.9551
M15
G01X4.6459Y-3.9551
M16
G05
G00X5.05Y-3.6146
M15
G01X5.0933Y-3.6146
M16
G05
G00X5.05Y-3.9547
M15
G01X5.0933Y-3.9547
M16
G05
G00X5.2244Y-3.6146
M15
G01X5.248Y-3.6146
M16
G05
G00X5.2244Y-3.9547
M15
G01X5.248Y-3.9547
M16
G05
M30
