%TF.GenerationSoftware,KiCad,Pcbnew,8.0.6*%
%TF.CreationDate,2024-11-01T15:36:22+09:00*%
%TF.ProjectId,powerups-usb-protection,706f7765-7275-4707-932d-7573622d7072,rev?*%
%TF.SameCoordinates,Original*%
%TF.FileFunction,Soldermask,Top*%
%TF.FilePolarity,Negative*%
%FSLAX46Y46*%
G04 Gerber Fmt 4.6, Leading zero omitted, Abs format (unit mm)*
G04 Created by KiCad (PCBNEW 8.0.6) date 2024-11-01 15:36:22*
%MOMM*%
%LPD*%
G01*
G04 APERTURE LIST*
%ADD10C,0.100000*%
%ADD11C,0.650000*%
%ADD12R,1.450000X0.600000*%
%ADD13R,1.450000X0.300000*%
%ADD14O,2.100000X1.000000*%
%ADD15O,1.600000X1.000000*%
%ADD16R,0.350000X0.650000*%
G04 APERTURE END LIST*
%TO.C,Q1*%
D10*
X124130000Y-97570000D02*
X123830000Y-97570000D01*
X123830000Y-99770000D01*
X124130000Y-99770000D01*
X124130000Y-97570000D01*
G36*
X124130000Y-97570000D02*
G01*
X123830000Y-97570000D01*
X123830000Y-99770000D01*
X124130000Y-99770000D01*
X124130000Y-97570000D01*
G37*
X123480000Y-97570000D02*
X123180000Y-97570000D01*
X123180000Y-99770000D01*
X123480000Y-99770000D01*
X123480000Y-97570000D01*
G36*
X123480000Y-97570000D02*
G01*
X123180000Y-97570000D01*
X123180000Y-99770000D01*
X123480000Y-99770000D01*
X123480000Y-97570000D01*
G37*
X122830000Y-97570000D02*
X122530000Y-97570000D01*
X122530000Y-97970000D01*
X122830000Y-97970000D01*
X122830000Y-97570000D01*
G36*
X122830000Y-97570000D02*
G01*
X122530000Y-97570000D01*
X122530000Y-97970000D01*
X122830000Y-97970000D01*
X122830000Y-97570000D01*
G37*
X124130000Y-97930000D02*
X123180000Y-97930000D01*
X123180000Y-99410000D01*
X124130000Y-99410000D01*
X124130000Y-97930000D01*
G36*
X124130000Y-97930000D02*
G01*
X123180000Y-97930000D01*
X123180000Y-99410000D01*
X124130000Y-99410000D01*
X124130000Y-97930000D01*
G37*
X122770000Y-98260000D02*
X122590000Y-98260000D01*
X122590000Y-99080000D01*
X122770000Y-99080000D01*
X122770000Y-98260000D01*
G36*
X122770000Y-98260000D02*
G01*
X122590000Y-98260000D01*
X122590000Y-99080000D01*
X122770000Y-99080000D01*
X122770000Y-98260000D01*
G37*
X122830000Y-99370000D02*
X122530000Y-99370000D01*
X122530000Y-99770000D01*
X122830000Y-99770000D01*
X122830000Y-99370000D01*
G36*
X122830000Y-99370000D02*
G01*
X122530000Y-99370000D01*
X122530000Y-99770000D01*
X122830000Y-99770000D01*
X122830000Y-99370000D01*
G37*
%TD*%
D11*
%TO.C,P1*%
X129350000Y-99020000D03*
X129350000Y-93240000D03*
D12*
X127905000Y-99380000D03*
X127905000Y-98580000D03*
D13*
X127905000Y-97380000D03*
X127905000Y-96380000D03*
X127905000Y-95880000D03*
X127905000Y-94880000D03*
D12*
X127905000Y-93680000D03*
X127905000Y-92880000D03*
X127905000Y-92880000D03*
X127905000Y-93680000D03*
D13*
X127905000Y-94380000D03*
X127905000Y-95380000D03*
X127905000Y-96880000D03*
X127905000Y-97880000D03*
D12*
X127905000Y-98580000D03*
X127905000Y-99380000D03*
D14*
X128820000Y-100450000D03*
D15*
X133000000Y-100450000D03*
D14*
X128820000Y-91810000D03*
D15*
X133000000Y-91810000D03*
%TD*%
D11*
%TO.C,P2*%
X118025000Y-93250000D03*
X118025000Y-99030000D03*
D12*
X119470000Y-92890000D03*
X119470000Y-93690000D03*
D13*
X119470000Y-94890000D03*
X119470000Y-95890000D03*
X119470000Y-96390000D03*
X119470000Y-97390000D03*
D12*
X119470000Y-98590000D03*
X119470000Y-99390000D03*
X119470000Y-99390000D03*
X119470000Y-98590000D03*
D13*
X119470000Y-97890000D03*
X119470000Y-96890000D03*
X119470000Y-95390000D03*
X119470000Y-94390000D03*
D12*
X119470000Y-93690000D03*
X119470000Y-92890000D03*
D14*
X118555000Y-91820000D03*
D15*
X114375000Y-91820000D03*
D14*
X118555000Y-100460000D03*
D15*
X114375000Y-100460000D03*
%TD*%
D16*
%TO.C,U1*%
X122640000Y-95530000D03*
X123290000Y-95530000D03*
X123940000Y-95530000D03*
X123940000Y-93430000D03*
X123290000Y-93430000D03*
X122640000Y-93430000D03*
%TD*%
M02*
